<svg width="93" height="92" viewBox="0 0 93 92" fill="none" xmlns="http://www.w3.org/2000/svg">
<rect x="0.333496" width="92" height="92" rx="24" fill="white"/>
<path d="M55.5652 51.6965C57.9174 51.6965 60.2431 52.2849 62.2912 53.3979C62.6631 53.5984 63.0044 53.8372 63.3529 54.0672C66.7142 47.4873 68.488 40.5283 68.488 33.7393C68.488 33.3578 68.488 32.9639 68.4758 32.5701C68.4512 32.0163 68.0573 31.5362 67.5034 31.4132C60.0696 29.7886 53.3373 25.7639 48.045 19.7824L47.2573 18.8839C47.0234 18.6132 46.6912 18.4655 46.3342 18.4655C45.9527 18.4163 45.6573 18.6009 45.4234 18.8593L44.2173 20.1886C39.1958 25.7147 32.8696 29.5301 25.9281 31.2286L25.1281 31.4254C24.5865 31.5486 24.205 32.0286 24.1927 32.5824C23.7496 49.887 33.965 62.3301 38.3712 66.8839C39.5641 68.1087 40.8941 69.3261 42.1588 70.3324C41.6844 68.9016 41.4113 67.3961 41.4113 65.8504C41.4113 58.0457 47.7605 51.6965 55.5652 51.6965Z" fill="url(#paint0_linear_1_841)"/>
<path d="M61.1156 55.5609C59.4172 54.6379 57.4972 54.1578 55.5649 54.1578C49.1156 54.1578 43.8726 59.4009 43.8726 65.8501C43.8726 68.0286 44.4634 70.1578 45.5957 71.9794C47.7495 75.4625 51.4665 77.5425 55.5649 77.5425C62.0018 77.5425 67.2572 72.2994 67.2572 65.8501C67.2572 61.5425 64.9064 57.604 61.1156 55.5609ZM61.5531 64.2934L52.4082 71.4099L49.2862 66.5265C48.9197 65.9538 49.0873 65.193 49.66 64.827C50.2334 64.4604 50.9948 64.6293 51.3596 65.2008L53.0272 67.809L60.0411 62.351C60.5765 61.9334 61.3505 62.0289 61.7682 62.5662C62.1859 63.1028 62.0891 63.8763 61.5531 64.2934Z" fill="url(#paint1_linear_1_841)"/>
<defs>
<linearGradient id="paint0_linear_1_841" x1="46.3334" y1="18.4575" x2="46.3334" y2="70.3324" gradientUnits="userSpaceOnUse">
<stop stop-color="#EF8080"/>
<stop offset="1" stop-color="#F0145A"/>
</linearGradient>
<linearGradient id="paint1_linear_1_841" x1="55.5649" y1="54.1578" x2="55.5649" y2="77.5425" gradientUnits="userSpaceOnUse">
<stop stop-color="#EF8080"/>
<stop offset="1" stop-color="#F0145A"/>
</linearGradient>
</defs>
</svg>
