<svg width="93" height="92" viewBox="0 0 93 92" fill="none" xmlns="http://www.w3.org/2000/svg">
<rect x="0.666748" width="92" height="92" rx="24" fill="white"/>
<path d="M55.0187 34.3897C55.7507 35.1217 56.9367 35.1237 57.6687 34.3897L60.2767 31.7817C61.0077 31.0497 61.0057 29.8637 60.2767 29.1307L53.6937 22.5497C52.9637 21.8177 51.7777 21.8177 51.0457 22.5497L48.4367 25.1577C47.7067 25.8897 47.7067 27.0757 48.4367 27.8057L55.0187 34.3897Z" fill="url(#paint0_linear_1_847)"/>
<path d="M39.4328 50.2677C40.1638 50.9967 41.3498 50.9967 42.0808 50.2677L44.6898 47.6577C45.4218 46.9277 45.4218 45.7407 44.6898 45.0087L38.1068 38.4257C37.3758 37.6957 36.1898 37.6937 35.4578 38.4257L32.8498 41.0337C32.1178 41.7657 32.1198 42.9517 32.8498 43.6837L39.4328 50.2677Z" fill="url(#paint1_linear_1_847)"/>
<path d="M69.3149 50.8937L66.6679 48.2437C65.9339 47.5137 64.7509 47.5137 64.0199 48.2437L62.8589 49.4037L51.6539 38.1967L54.0809 35.7687L47.3479 29.0377L44.9199 31.4657L41.8279 34.5557L39.4539 36.9297L46.1859 43.6627L48.5629 41.2897L59.7659 52.4947L58.7179 53.5437C57.9859 54.2727 57.9839 55.4597 58.7179 56.1917L61.3649 58.8397C62.0989 59.5737 63.2839 59.5737 64.0149 58.8397L69.3139 53.5427C70.0469 52.8097 70.0469 51.6257 69.3149 50.8937Z" fill="url(#paint2_linear_1_847)"/>
<path d="M49.7437 58.9428C49.7437 57.7438 48.7717 56.7698 47.5707 56.7698H30.6027C29.4027 56.7698 28.4297 57.7438 28.4297 58.9428V62.4698H23.6667V69.8588H54.2247V62.4698H49.7437V58.9428Z" fill="url(#paint3_linear_1_847)"/>
<defs>
<linearGradient id="paint0_linear_1_847" x1="54.3567" y1="22.0007" x2="54.3567" y2="34.9395" gradientUnits="userSpaceOnUse">
<stop stop-color="#EF8080"/>
<stop offset="1" stop-color="#F0145A"/>
</linearGradient>
<linearGradient id="paint1_linear_1_847" x1="38.7701" y1="37.8774" x2="38.7701" y2="50.8144" gradientUnits="userSpaceOnUse">
<stop stop-color="#EF8080"/>
<stop offset="1" stop-color="#F0145A"/>
</linearGradient>
<linearGradient id="paint2_linear_1_847" x1="54.6588" y1="29.0377" x2="54.6588" y2="59.3902" gradientUnits="userSpaceOnUse">
<stop stop-color="#EF8080"/>
<stop offset="1" stop-color="#F0145A"/>
</linearGradient>
<linearGradient id="paint3_linear_1_847" x1="38.9457" y1="56.7698" x2="38.9457" y2="69.8588" gradientUnits="userSpaceOnUse">
<stop stop-color="#EF8080"/>
<stop offset="1" stop-color="#F0145A"/>
</linearGradient>
</defs>
</svg>
